#tb 0: 1/15
#media_type 0: video
#codec_id 0: rawvideo
#dimensions 0: 1024x768
#sar 0: 0/1
0,          0,          0,        1,  2359296, 0x76cccaa7
0,          1,          1,        1,  2359296, 0x09c52bbf
0,          2,          2,        1,  2359296, 0xc8746009
0,          3,          3,        1,  2359296, 0xe48ff59b
0,          4,          4,        1,  2359296, 0xa2f1fddb
0,          5,          5,        1,  2359296, 0xbb0e0026
0,          6,          6,        1,  2359296, 0x66a905ab
0,          7,          7,        1,  2359296, 0xe990f855
0,          9,          9,        1,  2359296, 0x3ec2c64e
0,         13,         13,        1,  2359296, 0xda3ba3cf
0,         14,         14,        1,  2359296, 0x60a070fd
0,         15,         15,        1,  2359296, 0x42e5fedc
0,         17,         17,        1,  2359296, 0x699cf990
0,         24,         24,        1,  2359296, 0x1524160c
0,         31,         31,        1,  2359296, 0x33df0c8c
0,         38,         38,        1,  2359296, 0xfe3d29f8
0,         45,         45,        1,  2359296, 0x1b9d197f
0,         52,         52,        1,  2359296, 0x48c126fb
0,         59,         59,        1,  2359296, 0xcaa31c7c
0,         66,         66,        1,  2359296, 0xc6a333ee
0,         73,         73,        1,  2359296, 0xb96d1583
0,         80,         80,        1,  2359296, 0x878135ec
0,         88,         88,        1,  2359296, 0x76922870
0,         95,         95,        1,  2359296, 0xb0e031f0
0,        102,        102,        1,  2359296, 0xb2ef2a6e
0,        105,        105,        1,  2359296, 0x083c2474
0,        109,        109,        1,  2359296, 0xbdfe2ef3
0,        116,        116,        1,  2359296, 0x934b1484
0,        120,        120,        1,  2359296, 0x3e0d1a7e
0,        123,        123,        1,  2359296, 0x3ce539e8
0,        130,        130,        1,  2359296, 0xd46c2f69
0,        137,        137,        1,  2359296, 0x8d2933ee
0,        144,        144,        1,  2359296, 0xb6092b6d
0,        151,        151,        1,  2359296, 0xe4ef27fa
0,        158,        158,        1,  2359296, 0x5e5b2672
